<mxfile host="app.diagrams.net" modified="2022-11-03T19:18:31.846Z" agent="5.0 (Windows NT 10.0; Win64; x64) AppleWebKit/537.36 (KHTML, like Gecko) Chrome/107.0.0.0 Safari/537.36" etag="zuNFPBbOlH4m50feJAk_" version="20.5.1" type="github">
  <diagram id="YprrizRESTXiCNV2XOrN" name="Page-1">
    <mxGraphModel dx="1422" dy="790" grid="1" gridSize="10" guides="1" tooltips="1" connect="1" arrows="1" fold="1" page="1" pageScale="1" pageWidth="827" pageHeight="1169" math="0" shadow="0">
      <root>
        <mxCell id="0" />
        <mxCell id="1" parent="0" />
        <mxCell id="SPd6B84nOb_d5mBqfU_G-4" style="edgeStyle=orthogonalEdgeStyle;rounded=0;orthogonalLoop=1;jettySize=auto;html=1;entryX=0.5;entryY=0;entryDx=0;entryDy=0;" parent="1" source="SPd6B84nOb_d5mBqfU_G-1" target="SPd6B84nOb_d5mBqfU_G-3" edge="1">
          <mxGeometry relative="1" as="geometry" />
        </mxCell>
        <mxCell id="SPd6B84nOb_d5mBqfU_G-1" value="START&lt;br&gt;" style="ellipse;whiteSpace=wrap;html=1;" parent="1" vertex="1">
          <mxGeometry x="270" y="20" width="256" height="130" as="geometry" />
        </mxCell>
        <mxCell id="SPd6B84nOb_d5mBqfU_G-6" style="edgeStyle=orthogonalEdgeStyle;rounded=0;orthogonalLoop=1;jettySize=auto;html=1;entryX=0.533;entryY=0.167;entryDx=0;entryDy=0;entryPerimeter=0;" parent="1" source="SPd6B84nOb_d5mBqfU_G-3" target="SPd6B84nOb_d5mBqfU_G-5" edge="1">
          <mxGeometry relative="1" as="geometry" />
        </mxCell>
        <mxCell id="SPd6B84nOb_d5mBqfU_G-18" style="edgeStyle=orthogonalEdgeStyle;rounded=0;orthogonalLoop=1;jettySize=auto;html=1;" parent="1" source="SPd6B84nOb_d5mBqfU_G-3" target="SPd6B84nOb_d5mBqfU_G-15" edge="1">
          <mxGeometry relative="1" as="geometry" />
        </mxCell>
        <mxCell id="SPd6B84nOb_d5mBqfU_G-3" value="PODAJ X I Y" style="shape=parallelogram;perimeter=parallelogramPerimeter;whiteSpace=wrap;html=1;fixedSize=1;" parent="1" vertex="1">
          <mxGeometry x="293" y="280" width="210" height="60" as="geometry" />
        </mxCell>
        <mxCell id="SPd6B84nOb_d5mBqfU_G-8" style="edgeStyle=orthogonalEdgeStyle;rounded=0;orthogonalLoop=1;jettySize=auto;html=1;entryX=0.5;entryY=0;entryDx=0;entryDy=0;" parent="1" source="SPd6B84nOb_d5mBqfU_G-5" target="SPd6B84nOb_d5mBqfU_G-7" edge="1">
          <mxGeometry relative="1" as="geometry" />
        </mxCell>
        <mxCell id="SPd6B84nOb_d5mBqfU_G-13" style="edgeStyle=orthogonalEdgeStyle;rounded=0;orthogonalLoop=1;jettySize=auto;html=1;entryX=0;entryY=0.5;entryDx=0;entryDy=0;" parent="1" source="SPd6B84nOb_d5mBqfU_G-5" target="SPd6B84nOb_d5mBqfU_G-15" edge="1">
          <mxGeometry relative="1" as="geometry">
            <mxPoint x="470" y="450" as="targetPoint" />
          </mxGeometry>
        </mxCell>
        <mxCell id="SPd6B84nOb_d5mBqfU_G-5" value="JESLI X != 0 I Y != 0" style="shape=parallelogram;perimeter=parallelogramPerimeter;whiteSpace=wrap;html=1;fixedSize=1;" parent="1" vertex="1">
          <mxGeometry x="140" y="425" width="197" height="60" as="geometry" />
        </mxCell>
        <mxCell id="SPd6B84nOb_d5mBqfU_G-10" style="edgeStyle=orthogonalEdgeStyle;rounded=0;orthogonalLoop=1;jettySize=auto;html=1;" parent="1" source="SPd6B84nOb_d5mBqfU_G-7" target="SPd6B84nOb_d5mBqfU_G-9" edge="1">
          <mxGeometry relative="1" as="geometry" />
        </mxCell>
        <mxCell id="SPd6B84nOb_d5mBqfU_G-7" value="PRINT X/Y" style="shape=parallelogram;perimeter=parallelogramPerimeter;whiteSpace=wrap;html=1;fixedSize=1;" parent="1" vertex="1">
          <mxGeometry x="140" y="554.5" width="197" height="60" as="geometry" />
        </mxCell>
        <mxCell id="SPd6B84nOb_d5mBqfU_G-9" value="STOP&lt;br&gt;" style="ellipse;whiteSpace=wrap;html=1;" parent="1" vertex="1">
          <mxGeometry x="143.5" y="690" width="190" height="80" as="geometry" />
        </mxCell>
        <mxCell id="SPd6B84nOb_d5mBqfU_G-15" value="INACZEJ&lt;br&gt;" style="text;html=1;strokeColor=none;fillColor=none;align=center;verticalAlign=middle;whiteSpace=wrap;rounded=0;" parent="1" vertex="1">
          <mxGeometry x="650" y="450" width="60" height="30" as="geometry" />
        </mxCell>
        <mxCell id="SPd6B84nOb_d5mBqfU_G-19" value="" style="edgeStyle=none;orthogonalLoop=1;jettySize=auto;html=1;rounded=0;" parent="1" edge="1">
          <mxGeometry width="80" relative="1" as="geometry">
            <mxPoint x="720" y="390" as="sourcePoint" />
            <mxPoint x="800" y="390" as="targetPoint" />
            <Array as="points" />
          </mxGeometry>
        </mxCell>
      </root>
    </mxGraphModel>
  </diagram>
</mxfile>
